<svg width="204" height="68" viewBox="0 0 204 68" fill="none" xmlns="http://www.w3.org/2000/svg">
<path d="M14.52 14.52L24.28 39.64C24.6533 40.6267 25.08 41.2933 25.56 41.64C26.0667 41.9867 26.5333 42.1733 26.96 42.2V43C26.32 42.9467 25.56 42.92 24.68 42.92C23.8267 42.8933 22.96 42.88 22.08 42.88C20.96 42.88 19.92 42.8933 18.96 42.92C18 42.92 17.2267 42.9467 16.64 43V42.2C18 42.1467 18.8533 41.92 19.2 41.52C19.5733 41.0933 19.4933 40.2 18.96 38.84L11.76 19.4L12.4 18.68L5.76 36.04C5.28 37.24 4.98667 38.24 4.88 39.04C4.8 39.84 4.86667 40.4667 5.08 40.92C5.32 41.3733 5.72 41.6933 6.28 41.88C6.84 42.0667 7.53333 42.1733 8.36 42.2V43C7.56 42.9467 6.74667 42.92 5.92 42.92C5.12 42.8933 4.36 42.88 3.64 42.88C3 42.88 2.42667 42.8933 1.92 42.92C1.44 42.92 1 42.9467 0.6 43V42.2C1.16 42.0667 1.72 41.7333 2.28 41.2C2.84 40.6667 3.37333 39.76 3.88 38.48L13.16 14.52C13.3733 14.52 13.6 14.52 13.84 14.52C14.08 14.52 14.3067 14.52 14.52 14.52ZM18.72 31.48V32.28H6.8L7.2 31.48H18.72ZM66.2641 14.68V15.48C65.3841 15.5333 64.7174 15.6933 64.2641 15.96C63.8107 16.2267 63.5041 16.6667 63.3441 17.28C63.1841 17.8667 63.1041 18.7067 63.1041 19.8V31.36C63.1041 33.1733 62.9841 34.7867 62.7441 36.2C62.5041 37.6133 62.0774 38.8267 61.4641 39.84C60.7974 40.96 59.8107 41.8667 58.5041 42.56C57.2241 43.2267 55.6907 43.56 53.9041 43.56C52.6241 43.56 51.3841 43.4133 50.1841 43.12C48.9841 42.8267 47.9307 42.2667 47.0241 41.44C46.2241 40.72 45.5974 39.9333 45.1441 39.08C44.6907 38.2267 44.3841 37.2 44.2241 36C44.0641 34.7733 43.9841 33.2667 43.9841 31.48V18.92C43.9841 17.9333 43.9041 17.2133 43.7441 16.76C43.6107 16.28 43.3174 15.96 42.8641 15.8C42.4107 15.6133 41.7307 15.5067 40.8241 15.48V14.68C41.4374 14.7067 42.2241 14.7333 43.1841 14.76C44.1707 14.7867 45.2241 14.8 46.3441 14.8C47.3574 14.8 48.3574 14.7867 49.3441 14.76C50.3574 14.7333 51.1841 14.7067 51.8241 14.68V15.48C50.9174 15.5067 50.2241 15.6133 49.7441 15.8C49.2907 15.96 48.9841 16.28 48.8241 16.76C48.6641 17.2133 48.5841 17.9333 48.5841 18.92V32.76C48.5841 34.12 48.6507 35.3733 48.7841 36.52C48.9441 37.6667 49.2241 38.6667 49.6241 39.52C50.0507 40.3467 50.6641 41 51.4641 41.48C52.2907 41.9333 53.3574 42.16 54.6641 42.16C56.6374 42.16 58.1574 41.72 59.2241 40.84C60.3174 39.9333 61.0774 38.7067 61.5041 37.16C61.9574 35.5867 62.1841 33.8 62.1841 31.8V19.96C62.1841 18.8133 62.0774 17.9333 61.8641 17.32C61.6507 16.7067 61.2774 16.2667 60.7441 16C60.2107 15.7067 59.4507 15.5333 58.4641 15.48V14.68C58.9707 14.7067 59.6241 14.7333 60.4241 14.76C61.2241 14.7867 61.9574 14.8 62.6241 14.8C63.3174 14.8 63.9841 14.7867 64.6241 14.76C65.2907 14.7333 65.8374 14.7067 66.2641 14.68ZM81.9678 14.68C82.5811 14.7067 83.3678 14.7333 84.3278 14.76C85.3145 14.7867 86.2878 14.8 87.2478 14.8C88.5278 14.8 89.7411 14.7867 90.8878 14.76C92.0611 14.7333 92.8878 14.72 93.3678 14.72C95.6345 14.72 97.5145 15.0133 99.0078 15.6C100.528 16.1867 101.648 17.0133 102.368 18.08C103.114 19.12 103.488 20.32 103.488 21.68C103.488 22.5067 103.314 23.3867 102.968 24.32C102.648 25.2267 102.074 26.08 101.248 26.88C100.421 27.6533 99.3011 28.2933 97.8878 28.8C96.4745 29.3067 94.6745 29.56 92.4878 29.56H88.6478V28.76H92.0878C93.8745 28.76 95.2345 28.4667 96.1678 27.88C97.1278 27.2667 97.7678 26.4667 98.0878 25.48C98.4345 24.4667 98.6078 23.3467 98.6078 22.12C98.6078 20.0133 98.1545 18.3867 97.2478 17.24C96.3411 16.0667 94.7678 15.48 92.5278 15.48C91.3811 15.48 90.6211 15.7067 90.2478 16.16C89.9011 16.6133 89.7278 17.5333 89.7278 18.92V38.76C89.7278 39.72 89.8078 40.44 89.9678 40.92C90.1278 41.4 90.4345 41.72 90.8878 41.88C91.3411 42.04 92.0078 42.1467 92.8878 42.2V43C92.2478 42.9467 91.4345 42.92 90.4478 42.92C89.4878 42.8933 88.5011 42.88 87.4878 42.88C86.3678 42.88 85.3145 42.8933 84.3278 42.92C83.3678 42.92 82.5811 42.9467 81.9678 43V42.2C82.8745 42.1467 83.5545 42.04 84.0078 41.88C84.4611 41.72 84.7545 41.4 84.8878 40.92C85.0478 40.44 85.1278 39.72 85.1278 38.76V18.92C85.1278 17.9333 85.0478 17.2133 84.8878 16.76C84.7545 16.28 84.4478 15.96 83.9678 15.8C83.5145 15.6133 82.8478 15.5067 81.9678 15.48V14.68ZM88.7278 28.88C90.0878 28.9333 91.1811 29 92.0078 29.08C92.8345 29.1333 93.5278 29.1867 94.0878 29.24C94.6478 29.2933 95.1678 29.36 95.6478 29.44C97.6478 29.7067 99.1011 30.24 100.008 31.04C100.941 31.84 101.581 33.0667 101.928 34.72L102.928 38.8C103.168 39.9467 103.421 40.76 103.688 41.24C103.981 41.72 104.408 41.96 104.968 41.96C105.394 41.9333 105.741 41.8133 106.008 41.6C106.301 41.36 106.608 41.04 106.928 40.64L107.488 41.08C106.874 41.9067 106.234 42.5333 105.568 42.96C104.901 43.36 104.008 43.56 102.888 43.56C101.741 43.56 100.754 43.2667 99.9278 42.68C99.1278 42.0667 98.5545 40.92 98.2078 39.24L97.4078 35.24C97.1678 34.0933 96.9011 33.1067 96.6078 32.28C96.3145 31.4267 95.9011 30.76 95.3678 30.28C94.8611 29.8 94.1145 29.56 93.1278 29.56H88.8078L88.7278 28.88ZM142.131 14.68C142.025 15.6933 141.945 16.68 141.891 17.64C141.865 18.5733 141.851 19.2933 141.851 19.8C141.851 20.3067 141.865 20.7867 141.891 21.24C141.918 21.6933 141.945 22.0667 141.971 22.36H141.051C140.865 20.6533 140.571 19.3067 140.171 18.32C139.798 17.3333 139.225 16.64 138.451 16.24C137.705 15.8133 136.651 15.6 135.291 15.6H132.531C131.678 15.6 131.025 15.68 130.571 15.84C130.145 15.9733 129.851 16.2667 129.691 16.72C129.531 17.1467 129.451 17.8267 129.451 18.76V38.92C129.451 39.8267 129.531 40.5067 129.691 40.96C129.851 41.4133 130.145 41.72 130.571 41.88C131.025 42.0133 131.678 42.08 132.531 42.08H135.131C136.651 42.08 137.851 41.84 138.731 41.36C139.638 40.88 140.318 40.0933 140.771 39C141.251 37.9067 141.611 36.4133 141.851 34.52H142.771C142.691 35.2933 142.651 36.3067 142.651 37.56C142.651 38.0933 142.665 38.8667 142.691 39.88C142.745 40.8933 142.825 41.9333 142.931 43C141.571 42.9467 140.038 42.92 138.331 42.92C136.625 42.8933 135.105 42.88 133.771 42.88C133.158 42.88 132.371 42.88 131.411 42.88C130.451 42.88 129.411 42.8933 128.291 42.92C127.198 42.92 126.078 42.9333 124.931 42.96C123.811 42.96 122.731 42.9733 121.691 43V42.2C122.598 42.1467 123.278 42.04 123.731 41.88C124.185 41.72 124.478 41.4 124.611 40.92C124.771 40.44 124.851 39.72 124.851 38.76V18.92C124.851 17.9333 124.771 17.2133 124.611 16.76C124.478 16.28 124.171 15.96 123.691 15.8C123.238 15.6133 122.571 15.5067 121.691 15.48V14.68C122.731 14.7067 123.811 14.7333 124.931 14.76C126.078 14.76 127.198 14.7733 128.291 14.8C129.411 14.8 130.451 14.8 131.411 14.8C132.371 14.8 133.158 14.8 133.771 14.8C134.998 14.8 136.385 14.8 137.931 14.8C139.505 14.7733 140.905 14.7333 142.131 14.68ZM135.491 28.36C135.491 28.36 135.491 28.4933 135.491 28.76C135.491 29.0267 135.491 29.16 135.491 29.16H128.251C128.251 29.16 128.251 29.0267 128.251 28.76C128.251 28.4933 128.251 28.36 128.251 28.36H135.491ZM136.651 23.08C136.545 24.6 136.491 25.76 136.491 26.56C136.518 27.36 136.531 28.0933 136.531 28.76C136.531 29.4267 136.545 30.16 136.571 30.96C136.598 31.76 136.665 32.92 136.771 34.44H135.851C135.718 33.56 135.545 32.72 135.331 31.92C135.118 31.0933 134.731 30.4267 134.171 29.92C133.638 29.4133 132.798 29.16 131.651 29.16V28.36C132.505 28.36 133.171 28.1867 133.651 27.84C134.158 27.4933 134.545 27.04 134.811 26.48C135.078 25.92 135.265 25.3467 135.371 24.76C135.505 24.1467 135.625 23.5867 135.731 23.08H136.651ZM171.539 14.52L181.299 39.64C181.672 40.6267 182.099 41.2933 182.579 41.64C183.085 41.9867 183.552 42.1733 183.979 42.2V43C183.339 42.9467 182.579 42.92 181.699 42.92C180.845 42.8933 179.979 42.88 179.099 42.88C177.979 42.88 176.939 42.8933 175.979 42.92C175.019 42.92 174.245 42.9467 173.659 43V42.2C175.019 42.1467 175.872 41.92 176.219 41.52C176.592 41.0933 176.512 40.2 175.979 38.84L168.779 19.4L169.419 18.68L162.779 36.04C162.299 37.24 162.005 38.24 161.899 39.04C161.819 39.84 161.885 40.4667 162.099 40.92C162.339 41.3733 162.739 41.6933 163.299 41.88C163.859 42.0667 164.552 42.1733 165.379 42.2V43C164.579 42.9467 163.765 42.92 162.939 42.92C162.139 42.8933 161.379 42.88 160.659 42.88C160.019 42.88 159.445 42.8933 158.939 42.92C158.459 42.92 158.019 42.9467 157.619 43V42.2C158.179 42.0667 158.739 41.7333 159.299 41.2C159.859 40.6667 160.392 39.76 160.899 38.48L170.179 14.52C170.392 14.52 170.619 14.52 170.859 14.52C171.099 14.52 171.325 14.52 171.539 14.52ZM175.739 31.48V32.28H163.819L164.219 31.48H175.739Z" fill="white"/>
<path d="M31.074 65V53.1H31.805L37.33 62.637H36.939L42.447 53.1H43.161L43.178 65H42.328L42.311 54.409H42.549L37.33 63.419H36.905L31.669 54.409H31.924V65H31.074ZM57.9859 65.085C57.1019 65.085 56.2803 64.9377 55.5209 64.643C54.7729 64.337 54.1156 63.912 53.5489 63.368C52.9936 62.8127 52.5629 62.1723 52.2569 61.447C51.9509 60.7103 51.7979 59.9113 51.7979 59.05C51.7979 58.1887 51.9509 57.3953 52.2569 56.67C52.5629 55.9333 52.9936 55.293 53.5489 54.749C54.1156 54.1937 54.7729 53.7687 55.5209 53.474C56.2803 53.168 57.1019 53.015 57.9859 53.015C58.8699 53.015 59.6859 53.168 60.4339 53.474C61.1933 53.7687 61.8506 54.188 62.4059 54.732C62.9613 55.276 63.3919 55.9163 63.6979 56.653C64.0153 57.3783 64.1739 58.1773 64.1739 59.05C64.1739 59.9227 64.0153 60.7273 63.6979 61.464C63.3919 62.1893 62.9613 62.824 62.4059 63.368C61.8506 63.912 61.1933 64.337 60.4339 64.643C59.6859 64.9377 58.8699 65.085 57.9859 65.085ZM57.9859 64.286C58.7453 64.286 59.4479 64.1557 60.0939 63.895C60.7399 63.6343 61.3009 63.266 61.7769 62.79C62.2529 62.314 62.6213 61.7587 62.8819 61.124C63.1539 60.4893 63.2899 59.798 63.2899 59.05C63.2899 58.2907 63.1539 57.5993 62.8819 56.976C62.6213 56.3413 62.2529 55.786 61.7769 55.31C61.3009 54.834 60.7399 54.4657 60.0939 54.205C59.4479 53.9443 58.7453 53.814 57.9859 53.814C57.2266 53.814 56.5239 53.9443 55.8779 54.205C55.2319 54.4657 54.6653 54.834 54.1779 55.31C53.7019 55.786 53.3279 56.3413 53.0559 56.976C52.7953 57.5993 52.6649 58.2907 52.6649 59.05C52.6649 59.798 52.7953 60.4893 53.0559 61.124C53.3279 61.7587 53.7019 62.314 54.1779 62.79C54.6653 63.266 55.2319 63.6343 55.8779 63.895C56.5239 64.1557 57.2266 64.286 57.9859 64.286ZM72.7911 65V53.1H73.5221L82.0051 63.929H81.6141V53.1H82.4811V65H81.7671L73.2671 54.171H73.6581V65H72.7911ZM95.3748 65.085C94.4908 65.085 93.6521 64.9377 92.8588 64.643C92.0768 64.337 91.4704 63.946 91.0398 63.47L91.4308 62.824C91.8388 63.2433 92.3941 63.6003 93.0968 63.895C93.8108 64.1783 94.5644 64.32 95.3578 64.32C96.1511 64.32 96.7971 64.218 97.2958 64.014C97.8058 63.7987 98.1798 63.5153 98.4178 63.164C98.6671 62.8127 98.7918 62.4217 98.7918 61.991C98.7918 61.481 98.6558 61.073 98.3838 60.767C98.1118 60.461 97.7548 60.2173 97.3128 60.036C96.8708 59.8547 96.3891 59.7017 95.8678 59.577C95.3464 59.4523 94.8194 59.322 94.2868 59.186C93.7541 59.0387 93.2668 58.8517 92.8248 58.625C92.3828 58.3983 92.0258 58.0923 91.7538 57.707C91.4931 57.3103 91.3628 56.8003 91.3628 56.177C91.3628 55.6103 91.5101 55.089 91.8048 54.613C92.0994 54.137 92.5584 53.7517 93.1818 53.457C93.8051 53.1623 94.6041 53.015 95.5788 53.015C96.2361 53.015 96.8821 53.1113 97.5168 53.304C98.1628 53.4967 98.7124 53.7573 99.1658 54.086L98.8428 54.783C98.3441 54.443 97.8058 54.1937 97.2278 54.035C96.6611 53.865 96.1114 53.78 95.5788 53.78C94.8194 53.78 94.1904 53.8877 93.6918 54.103C93.1931 54.3183 92.8248 54.6073 92.5868 54.97C92.3488 55.3213 92.2298 55.718 92.2298 56.16C92.2298 56.67 92.3601 57.078 92.6208 57.384C92.8928 57.69 93.2498 57.9337 93.6918 58.115C94.1338 58.2963 94.6211 58.4493 95.1538 58.574C95.6864 58.6987 96.2134 58.8347 96.7348 58.982C97.2561 59.118 97.7378 59.2993 98.1798 59.526C98.6218 59.7527 98.9788 60.0587 99.2508 60.444C99.5228 60.8293 99.6588 61.328 99.6588 61.94C99.6588 62.4953 99.5058 63.0167 99.1998 63.504C98.8938 63.98 98.4234 64.3653 97.7888 64.66C97.1654 64.9433 96.3608 65.085 95.3748 65.085ZM108.216 65V53.1H109.083V65H108.216ZM119.605 58.574H126.048V59.339H119.605V58.574ZM119.707 64.218H127.051V65H118.84V53.1H126.796V53.882H119.707V64.218ZM140.48 65.085C139.007 65.085 137.845 64.6543 136.995 63.793C136.145 62.9317 135.72 61.651 135.72 59.951V53.1H136.587V59.917C136.587 61.4017 136.927 62.501 137.607 63.215C138.287 63.929 139.25 64.286 140.497 64.286C141.732 64.286 142.69 63.929 143.37 63.215C144.05 62.501 144.39 61.4017 144.39 59.917V53.1H145.257V59.951C145.257 61.651 144.832 62.9317 143.982 63.793C143.132 64.6543 141.965 65.085 140.48 65.085ZM154.912 65V53.1H159.179C160.177 53.1 161.032 53.2587 161.746 53.576C162.46 53.8933 163.01 54.3523 163.395 54.953C163.781 55.5423 163.973 56.262 163.973 57.112C163.973 57.9393 163.781 58.6533 163.395 59.254C163.01 59.8433 162.46 60.3023 161.746 60.631C161.032 60.9483 160.177 61.107 159.179 61.107H155.388L155.779 60.699V65H154.912ZM163.174 65L160.08 60.682H161.066L164.16 65H163.174ZM155.779 60.75L155.388 60.342H159.179C160.46 60.342 161.429 60.0587 162.086 59.492C162.755 58.9253 163.089 58.132 163.089 57.112C163.089 56.0807 162.755 55.2873 162.086 54.732C161.429 54.1653 160.46 53.882 159.179 53.882H155.388L155.779 53.457V60.75Z" fill="white"/>
</svg>
